# xmcd
#
# Track frame offsets:
#	150
#	12293
#	28428
#	38599
#	46815
#	56574
#	72558
#	84356
#	102350
#	110952
#	123691
#	137042
#	150779
#	163655
#
# Disc length: 2388 seconds
#
# Revision: 1
# Processed by: cddbd v1.5.2PL0 Copyright (c) Steve Scherf et al.
# Submitted via: audiograbber 1.83.01
#
DISCID=bc09520e
DTITLE=eeco Rijken - boogie Woogie and blues for the road
DYEAR=2010
DGENRE=Boogie Woogie
TTITLE0=Dadlow
TTITLE1=Shake Rattle ' n roll
TTITLE2=Swingy Thingy
TTITLE3=State Street Special
TTITLE4=Route 88
TTITLE5=The Boogie Woogie blues
TTITLE6=Dave Speaks
TTITLE7=Flip Flop and Fly
TTITLE8=AA Booghee
TTITLE9=Sweet Patootie Boogie
TTITLE10=Eeco's Boogie
TTITLE11=Low Street Blues
TTITLE12=The Boogie Woogie Rocks
TTITLE13=Summertime
EXTD=
EXTT0=
EXTT1=
EXTT2=
EXTT3=
EXTT4=
EXTT5=
EXTT6=
EXTT7=
EXTT8=
EXTT9=
EXTT10=
EXTT11=
EXTT12=
EXTT13=
PLAYORDER=
